<?xml version="1.0" standalone="no"?>
<!DOCTYPE svg PUBLIC "-//W3C//DTD SVG 20010904//EN"
 "http://www.w3.org/TR/2001/REC-SVG-20010904/DTD/svg10.dtd">
<svg version="1.0" xmlns="http://www.w3.org/2000/svg"
 width="202.000000pt" height="249.000000pt" viewBox="0 0 202.000000 249.000000"
 preserveAspectRatio="xMidYMid meet">
<metadata>
Created by potrace 1.15, written by Peter Selinger 2001-2017
</metadata>
<g transform="translate(0.000000,249.000000) scale(0.100000,-0.100000)"
fill="#000000" stroke="none">
<path d="M901 2451 c-23 -25 -46 -62 -53 -82 -6 -21 -14 -36 -18 -34 -5 3 -13
27 -20 55 -7 27 -18 50 -24 50 -16 0 -37 -68 -43 -141 -5 -53 -8 -58 -42 -74
-20 -9 -63 -34 -96 -55 -33 -21 -95 -53 -139 -70 -139 -55 -165 -73 -166 -118
0 -23 10 -34 90 -105 54 -47 72 -52 168 -40 71 9 111 6 153 -11 11 -5 18 -1
21 12 12 45 -24 56 -134 41 -90 -13 -158 -6 -165 18 -3 9 4 10 27 3 21 -6 64
-4 129 5 67 10 107 12 130 5 38 -11 71 -37 71 -56 0 -27 -84 -154 -176 -265
-145 -175 -167 -237 -123 -340 18 -41 21 -63 17 -139 l-4 -90 25 17 c14 9 71
41 126 71 55 30 107 60 115 68 12 12 11 14 -9 14 -15 0 -41 17 -67 44 -41 40
-44 47 -44 96 0 47 3 55 38 87 20 19 57 54 82 77 25 24 62 53 82 65 25 15 45
39 62 74 13 29 40 70 58 91 l34 39 22 -34 c11 -19 73 -104 136 -189 165 -221
216 -328 216 -450 0 -97 -25 -149 -170 -360 -69 -99 -100 -166 -100 -216 0
-94 111 -235 232 -292 56 -27 98 -37 272 -62 114 -16 212 -32 218 -36 7 -5 -6
-12 -32 -18 -55 -14 -69 -35 -47 -70 22 -32 73 -42 141 -27 66 15 94 34 112
77 12 29 12 39 0 67 -26 65 -105 101 -285 132 -46 9 -86 17 -88 19 -2 1 16 32
40 67 64 95 82 162 81 294 0 97 -4 121 -32 202 -17 51 -45 120 -62 153 -38 75
-148 238 -209 310 -58 67 -212 270 -206 270 2 0 24 -14 49 -31 24 -17 49 -28
55 -25 24 15 12 129 -24 235 -50 148 -173 364 -280 491 -21 25 -42 55 -48 67
-5 12 -14 20 -18 17 -5 -3 -7 1 -4 8 3 7 -3 40 -14 73 l-18 60 -42 -44z"/>
<path d="M829 698 c15 -20 7 -38 -17 -38 -14 0 -13 -2 2 -13 15 -11 17 -17 7
-35 -7 -13 -10 -26 -7 -31 3 -5 -1 -14 -9 -21 -13 -11 -14 -8 -9 19 l7 31
-327 0 c-179 0 -326 3 -326 6 0 3 5 15 10 27 9 20 9 20 -2 3 -7 -10 -23 -28
-35 -39 -13 -11 -23 -25 -23 -29 0 -5 -11 -26 -25 -46 -29 -43 -32 -60 -8 -41
16 13 17 12 4 -3 -7 -10 -17 -16 -21 -13 -15 9 -32 -59 -37 -146 -8 -132 33
-235 110 -276 46 -24 147 -20 297 12 338 71 507 82 698 45 121 -24 123 -24
146 -7 24 17 13 40 -33 65 -66 37 -156 53 -336 59 -159 5 -182 3 -360 -27
-273 -46 -345 -36 -345 48 l0 35 25 -27 c24 -26 30 -27 93 -23 37 2 112 13
167 25 55 11 151 26 214 33 123 14 149 26 130 61 -19 36 -75 51 -166 45 -46
-3 -83 -4 -83 -2 0 2 36 23 79 45 83 43 182 121 199 156 14 30 7 83 -14 103
-17 15 -17 15 -5 -1z"/>
<path d="M940 623 c-1 -29 -38 -104 -75 -149 -37 -45 -46 -65 -18 -43 9 8 14
9 10 3 -4 -7 0 -18 9 -25 21 -17 44 -63 44 -88 0 -15 8 -21 33 -25 17 -2 69
-10 114 -16 79 -12 113 -10 113 7 0 14 -51 64 -59 58 -5 -2 -8 3 -7 13 0 9 -5
16 -12 14 -8 -1 -11 2 -8 7 3 5 -2 23 -10 41 -13 25 -30 119 -34 183 0 5 -19
7 -42 5 -35 -2 -43 -7 -50 -28 -4 -16 -5 -9 -2 18 3 23 3 42 0 42 -3 0 -6 -8
-6 -17z"/>
</g>
</svg>
